<svg xmlns="http://www.w3.org/2000/svg" version="1.1" xmlns:xlink="http://www.w3.org/1999/xlink" xmlns:svgjs="http://svgjs.dev/svgjs" width="1440" height="560" preserveAspectRatio="none" viewBox="0 0 1440 560"><g mask="url(&quot;#SvgjsMask1000&quot;)" fill="none"><rect width="1440" height="560" x="0" y="0" fill="#0e2a47"></rect><path d="M1112.817,506.395C1165.435,503.251,1215.412,480.313,1241.739,434.646C1268.039,389.027,1265.741,332.724,1239.138,287.281C1212.817,242.32,1164.871,216.575,1112.817,214.421C1056.309,212.083,998.421,229.002,966.992,276.021C931.993,328.381,920.44,398.618,954.125,451.833C986.191,502.49,1052.971,509.971,1112.817,506.395" fill="rgba(28, 83, 142, 0.4)" class="triangle-float2"></path><path d="M727.6960263459403 367.9432016294219L880.5601758956122 449.4094759966864 877.9175484806424 298.0134527886644z" fill="rgba(28, 83, 142, 0.4)" class="triangle-float3"></path><path d="M524.6804696194781 248.83185021333327L436.3198654447398 261.2501232788586 448.7381385102651 349.610727453597 537.0987426850035 337.1924543880716z" fill="rgba(28, 83, 142, 0.4)" class="triangle-float1"></path><path d="M444.125,398.976C467.108,398.837,486.157,383.096,497.545,363.132C508.816,343.373,512.26,319.22,500.843,299.544C489.464,279.933,466.796,271.332,444.125,271.07C420.915,270.802,396.863,278.201,385.092,298.207C373.183,318.447,377.702,343.523,389.573,363.786C401.297,383.798,420.932,399.116,444.125,398.976" fill="rgba(28, 83, 142, 0.4)" class="triangle-float3"></path><path d="M449.2029168921161 175.92049274764372L502.43075851950437 251.93772867098312 589.8426915908193 134.08734826823104z" fill="rgba(28, 83, 142, 0.4)" class="triangle-float2"></path><path d="M484.2431749620434 227.31022484912455L591.1131326561856 155.22552818983576 519.0284359968967 48.35557049569357 412.1584783027546 120.44026715498237z" fill="rgba(28, 83, 142, 0.4)" class="triangle-float1"></path></g><defs><mask id="SvgjsMask1000"><rect width="1440" height="560" fill="#ffffff"></rect></mask><style>
                @keyframes float1 {
                    0%{transform: translate(0, 0)}
                    50%{transform: translate(-10px, 0)}
                    100%{transform: translate(0, 0)}
                }

                .triangle-float1 {
                    animation: float1 5s infinite;
                }

                @keyframes float2 {
                    0%{transform: translate(0, 0)}
                    50%{transform: translate(-5px, -5px)}
                    100%{transform: translate(0, 0)}
                }

                .triangle-float2 {
                    animation: float2 4s infinite;
                }

                @keyframes float3 {
                    0%{transform: translate(0, 0)}
                    50%{transform: translate(0, -10px)}
                    100%{transform: translate(0, 0)}
                }

                .triangle-float3 {
                    animation: float3 6s infinite;
                }
            </style></defs></svg>